<svg width="21" height="21" viewBox="0 0 21 21" fill="none" xmlns="http://www.w3.org/2000/svg">
<g clip-path="url(#clip0_69_382)">
<path d="M10.4447 18.4014C9.29188 18.4014 8.20855 18.1827 7.19466 17.7452C6.18077 17.3077 5.29883 16.7139 4.54883 15.9639C3.79883 15.2139 3.20508 14.332 2.76758 13.3181C2.33008 12.3042 2.11133 11.2209 2.11133 10.0681C2.11133 8.9153 2.33008 7.83196 2.76758 6.81808C3.20508 5.80419 3.79883 4.92224 4.54883 4.17224C5.29883 3.42224 6.18077 2.82849 7.19466 2.39099C8.20855 1.95349 9.29188 1.73474 10.4447 1.73474C11.5974 1.73474 12.6808 1.95349 13.6947 2.39099C14.7085 2.82849 15.5905 3.42224 16.3405 4.17224C17.0905 4.92224 17.6842 5.80419 18.1217 6.81808C18.5592 7.83196 18.778 8.9153 18.778 10.0681C18.778 11.2209 18.5592 12.3042 18.1217 13.3181C17.6842 14.332 17.0905 15.2139 16.3405 15.9639C15.5905 16.7139 14.7085 17.3077 13.6947 17.7452C12.6808 18.1827 11.5974 18.4014 10.4447 18.4014ZM10.4447 16.7347C12.3058 16.7347 13.8822 16.0889 15.1738 14.7972C16.4655 13.5056 17.1113 11.9292 17.1113 10.0681C17.1113 8.20696 16.4655 6.63058 15.1738 5.33891C13.8822 4.04724 12.3058 3.40141 10.4447 3.40141C8.58355 3.40141 7.00716 4.04724 5.71549 5.33891C4.42383 6.63058 3.77799 8.20696 3.77799 10.0681C3.77799 11.9292 4.42383 13.5056 5.71549 14.7972C7.00716 16.0889 8.58355 16.7347 10.4447 16.7347Z" fill="white"/>
</g>
<defs>
<clipPath id="clip0_69_382">
<rect width="20" height="20" fill="white" transform="translate(0.44458 0.0681152)"/>
</clipPath>
</defs>
</svg>
