<svg width="24" height="25" viewBox="0 0 24 25" fill="none" xmlns="http://www.w3.org/2000/svg">
<g clip-path="url(#clip0_46_465)">
<path d="M4 20.5C3.45 20.5 2.97917 20.3042 2.5875 19.9125C2.19583 19.5208 2 19.05 2 18.5V6.5C2 5.95 2.19583 5.47917 2.5875 5.0875C2.97917 4.69583 3.45 4.5 4 4.5H20C20.55 4.5 21.0208 4.69583 21.4125 5.0875C21.8042 5.47917 22 5.95 22 6.5V18.5C22 19.05 21.8042 19.5208 21.4125 19.9125C21.0208 20.3042 20.55 20.5 20 20.5H4ZM4 18.5H20V8.5H4V18.5ZM7.5 17.5L6.1 16.1L8.675 13.5L6.075 10.9L7.5 9.5L11.5 13.5L7.5 17.5ZM12 17.5V15.5H18V17.5H12Z" fill="white"/>
</g>
<defs>
<clipPath id="clip0_46_465">
<rect width="24" height="24" fill="white" transform="translate(0 0.5)"/>
</clipPath>
</defs>
</svg>
